<?xml version="1.0" encoding="UTF-8"?>
<!DOCTYPE svg PUBLIC "-//W3C//DTD SVG 1.1//EN" "http://www.w3.org/Graphics/SVG/1.1/DTD/svg11.dtd">
<!-- Creator: CorelDRAW 2021 (64-Bit) -->
<svg xmlns="http://www.w3.org/2000/svg" xml:space="preserve" width="0.194445in" height="0.166665in" version="1.1" style="shape-rendering:geometricPrecision; text-rendering:geometricPrecision; image-rendering:optimizeQuality; fill-rule:evenodd; clip-rule:evenodd"
viewBox="0 0 1.16 0.99"
 xmlns:xlink="http://www.w3.org/1999/xlink"
 xmlns:xodm="http://www.corel.com/coreldraw/odm/2003">
 <defs>
  <style type="text/css">
   <![CDATA[
    .fil0 {fill:#6E44FF;fill-rule:nonzero}
   ]]>
  </style>
 </defs>
 <g id="Layer_x0020_1">
  <metadata id="CorelCorpID_0Corel-Layer"/>
  <path class="fil0" d="M-0 0.08c0,-0.05 0.04,-0.08 0.08,-0.08l0.99 0c0.05,0 0.08,0.04 0.08,0.08 0,0.05 -0.04,0.08 -0.08,0.08l-0.99 0c-0.05,0 -0.08,-0.04 -0.08,-0.08zm0 0.41c0,-0.05 0.04,-0.08 0.08,-0.08l0.99 0c0.05,0 0.08,0.04 0.08,0.08 0,0.05 -0.04,0.08 -0.08,0.08l-0.99 0c-0.05,0 -0.08,-0.04 -0.08,-0.08zm1.16 0.41c0,0.05 -0.04,0.08 -0.08,0.08l-0.99 0c-0.05,0 -0.08,-0.04 -0.08,-0.08 0,-0.05 0.04,-0.08 0.08,-0.08l0.99 0c0.05,0 0.08,0.04 0.08,0.08z"/>
 </g>
</svg>
