<?xml version="1.0" encoding="UTF-8"?>
<!DOCTYPE svg PUBLIC "-//W3C//DTD SVG 1.1//EN" "http://www.w3.org/Graphics/SVG/1.1/DTD/svg11.dtd">
<!-- Creator: CorelDRAW 2021 (64-Bit) -->
<svg xmlns="http://www.w3.org/2000/svg" xml:space="preserve" width="0.208331in" height="0.166665in" version="1.1" style="shape-rendering:geometricPrecision; text-rendering:geometricPrecision; image-rendering:optimizeQuality; fill-rule:evenodd; clip-rule:evenodd"
viewBox="0 0 1.22 0.98"
 xmlns:xlink="http://www.w3.org/1999/xlink"
 xmlns:xodm="http://www.corel.com/coreldraw/odm/2003">
 <defs>
  <style type="text/css">
   <![CDATA[
    .fil0 {fill:#6E44FF;fill-rule:nonzero}
   ]]>
  </style>
 </defs>
 <g id="Layer_x0020_1">
  <metadata id="CorelCorpID_0Corel-Layer"/>
  <path class="fil0" d="M0.4 0.67c0.22,0 0.4,-0.15 0.4,-0.34 0,-0.19 -0.18,-0.34 -0.4,-0.34 -0.22,0 -0.4,0.15 -0.4,0.34 0,0.07 0.03,0.14 0.08,0.2 -0.01,0.02 -0.02,0.03 -0.03,0.05 -0.01,0.01 -0.02,0.02 -0.03,0.03 -0,0 -0.01,0.01 -0.01,0.01 -0,0 -0,0 -0,0l-0 0 0 0 0 0c-0.01,0.01 -0.02,0.02 -0.01,0.03 0,0.01 0.02,0.02 0.03,0.02 0.04,0 0.08,-0.01 0.12,-0.02 0.02,-0.01 0.03,-0.01 0.05,-0.02 0.06,0.03 0.13,0.05 0.2,0.05zm0.46 -0.34c0,0.21 -0.19,0.38 -0.41,0.39 0.05,0.14 0.2,0.25 0.38,0.25 0.07,0 0.14,-0.02 0.2,-0.05 0.01,0.01 0.03,0.02 0.05,0.02 0.03,0.01 0.08,0.02 0.12,0.02 0.01,0 0.02,-0.01 0.03,-0.02 0,-0.01 -0,-0.03 -0.01,-0.03l0 0 0 0 -0 -0c-0,-0 -0,-0 -0,-0 -0,-0 -0,-0 -0.01,-0.01 -0.01,-0.01 -0.02,-0.02 -0.03,-0.03 -0.01,-0.01 -0.02,-0.03 -0.03,-0.05 0.05,-0.06 0.08,-0.12 0.08,-0.2 0,-0.18 -0.16,-0.32 -0.37,-0.33 0,0.01 0,0.02 0,0.03l0 0z"/>
 </g>
</svg>
