<?xml version="1.0" encoding="UTF-8"?>
<!DOCTYPE svg PUBLIC "-//W3C//DTD SVG 1.1//EN" "http://www.w3.org/Graphics/SVG/1.1/DTD/svg11.dtd">
<!-- Creator: CorelDRAW 2021 (64-Bit) -->
<svg xmlns="http://www.w3.org/2000/svg" xml:space="preserve" width="0.365669in" height="0.32in" version="1.1" style="shape-rendering:geometricPrecision; text-rendering:geometricPrecision; image-rendering:optimizeQuality; fill-rule:evenodd; clip-rule:evenodd"
viewBox="0 0 11.24 9.84"
 xmlns:xlink="http://www.w3.org/1999/xlink"
 xmlns:xodm="http://www.corel.com/coreldraw/odm/2003">
 <defs>
  <style type="text/css">
   <![CDATA[
    .fil0 {fill:#6E44FF;fill-rule:nonzero}
   ]]>
  </style>
 </defs>
 <g id="Layer_x0020_1">
  <metadata id="CorelCorpID_0Corel-Layer"/>
  <path class="fil0" d="M5.62 9.13c3.1,0 5.62,-2.04 5.62,-4.57 0,-2.52 -2.52,-4.57 -5.62,-4.57 -3.1,0 -5.62,2.04 -5.62,4.57 0,0.99 0.39,1.91 1.05,2.65 -0.04,0.54 -0.25,1.02 -0.47,1.38 -0.12,0.2 -0.24,0.36 -0.33,0.47 -0.05,0.05 -0.08,0.1 -0.11,0.13 -0.01,0.01 -0.02,0.02 -0.03,0.03l-0.01 0.01 0 0 0 0 0 0 0 0c-0.1,0.1 -0.13,0.25 -0.07,0.38 0.05,0.13 0.18,0.22 0.32,0.22 0.63,0 1.26,-0.2 1.79,-0.42 0.5,-0.22 0.93,-0.48 1.19,-0.67 0.7,0.25 1.47,0.39 2.29,0.39l0 -0zm-2.81 -5.27c0.39,0 0.7,0.31 0.7,0.7 0,0.39 -0.31,0.7 -0.7,0.7 -0.39,0 -0.7,-0.31 -0.7,-0.7 0,-0.39 0.31,-0.7 0.7,-0.7l0 0zm2.81 1.4c0.39,0 0.7,0.31 0.7,0.7 0,0.39 -0.31,0.7 -0.7,0.7 -0.39,0 -0.7,-0.31 -0.7,-0.7 0,-0.39 0.31,-0.7 0.7,-0.7l0 0zm2.11 2.11c0,-0.39 0.31,-0.7 0.7,-0.7 0.39,0 0.7,0.31 0.7,0.7 0,0.39 -0.31,0.7 -0.7,0.7 -0.39,0 -0.7,-0.31 -0.7,-0.7l0 0z"/>
 </g>
</svg>
