<?xml version="1.0" encoding="UTF-8"?>
<!DOCTYPE svg PUBLIC "-//W3C//DTD SVG 1.1//EN" "http://www.w3.org/Graphics/SVG/1.1/DTD/svg11.dtd">
<!-- Creator: CorelDRAW 2021 (64-Bit) -->
<svg xmlns="http://www.w3.org/2000/svg" xml:space="preserve" width="0.350075in" height="0.400004in" version="1.1" style="shape-rendering:geometricPrecision; text-rendering:geometricPrecision; image-rendering:optimizeQuality; fill-rule:evenodd; clip-rule:evenodd"
viewBox="0 0 6.16 7.04"
 xmlns:xlink="http://www.w3.org/1999/xlink"
 xmlns:xodm="http://www.corel.com/coreldraw/odm/2003">
 <defs>
  <style type="text/css">
   <![CDATA[
    .fil0 {fill:#EF7A85;fill-rule:nonzero}
   ]]>
  </style>
 </defs>
 <g id="Layer_x0020_1">
  <metadata id="CorelCorpID_0Corel-Layer"/>
  <path class="fil0" d="M3.01 0.01c0.04,-0.01 0.09,-0.01 0.13,0l2.75 0.55c0.15,0.03 0.27,0.17 0.27,0.32 0,0.16 -0.11,0.29 -0.27,0.32l-1.05 0.21 0 0.78c0,0.97 -0.79,1.76 -1.76,1.76 -0.97,0 -1.76,-0.79 -1.76,-1.76l0 -0.78 -0.66 -0.13 0 0.89 0.22 1.08c0.01,0.06 -0,0.13 -0.05,0.18 -0.04,0.05 -0.1,0.08 -0.17,0.08l-0.44 0c-0.07,0 -0.13,-0.03 -0.17,-0.08 -0.04,-0.05 -0.06,-0.12 -0.05,-0.18l0.22 -1.08 0 -0.99c-0.13,-0.05 -0.22,-0.17 -0.22,-0.31 0,-0.16 0.11,-0.29 0.27,-0.32l2.75 -0.55zm-1.48 4.5c0.14,-0.05 0.3,0.01 0.4,0.12l0.98 1.04c0.09,0.09 0.23,0.09 0.32,0l0.98 -1.04c0.1,-0.11 0.26,-0.16 0.4,-0.12 0.89,0.29 1.54,1.12 1.54,2.11 0,0.23 -0.19,0.42 -0.42,0.42l-5.31 0c-0.23,0 -0.42,-0.19 -0.42,-0.42 0,-0.99 0.65,-1.82 1.54,-2.11z"/>
 </g>
</svg>
