<?xml version="1.0" encoding="UTF-8"?>
<!DOCTYPE svg PUBLIC "-//W3C//DTD SVG 1.1//EN" "http://www.w3.org/Graphics/SVG/1.1/DTD/svg11.dtd">
<!-- Creator: CorelDRAW 2021 (64-Bit) -->
<svg xmlns="http://www.w3.org/2000/svg" xml:space="preserve" width="1.25358in" height="1.33333in" version="1.1" style="shape-rendering:geometricPrecision; text-rendering:geometricPrecision; image-rendering:optimizeQuality; fill-rule:evenodd; clip-rule:evenodd"
viewBox="0 0 132.01 140.41"
 xmlns:xlink="http://www.w3.org/1999/xlink"
 xmlns:xodm="http://www.corel.com/coreldraw/odm/2003">
 <defs>
  <style type="text/css">
   <![CDATA[
    .fil0 {fill:#6E44FF;fill-rule:nonzero}
   ]]>
  </style>
 </defs>
 <g id="Layer_x0020_1">
  <metadata id="CorelCorpID_0Corel-Layer"/>
  <g id="_2262046728240">
   <g>
    <path class="fil0" d="M70.69 111.69l-9.38 0c-7.16,0 -12.97,5.81 -12.97,12.97l-0 15.75 35.33 0 0 -15.75c-0,-7.16 -5.81,-12.97 -12.97,-12.97z"/>
    <path class="fil0" d="M55.61 88.79l0 4.4c0,5.74 4.65,10.39 10.39,10.39 5.74,0 10.39,-4.65 10.39,-10.39l0 -4.4c0,-5.74 -4.65,-10.39 -10.39,-10.39 -5.74,0 -10.39,4.65 -10.39,10.39z"/>
    <path class="fil0" d="M69.31 66.38c1.56,0 2.83,-1.27 2.83,-2.83l0 -2.43 0 -0.54 -12.26 0 0 0.54 0 2.43c0,1.56 1.27,2.83 2.83,2.83l6.61 0z"/>
    <path class="fil0" d="M53.88 42.25c2.38,3.77 3.93,7.99 4.36,12.39 0.07,0.7 0.66,1.24 1.36,1.24l12.81 0c0.71,0 1.29,-0.53 1.36,-1.24 0.42,-4.4 1.98,-8.61 4.36,-12.39 1.39,-2.21 2.2,-4.82 2.2,-7.62 0,-7.91 -6.41,-14.32 -14.32,-14.32 -7.91,0 -14.32,6.41 -14.32,14.32 0,2.8 0.81,5.42 2.2,7.62z"/>
    <path class="fil0" d="M119.04 83.77l-9.38 0c-7.16,0 -12.97,5.81 -12.97,12.97l0 15.75 35.33 0 0 -15.75c-0,-7.16 -5.81,-12.97 -12.97,-12.97z"/>
    <path class="fil0" d="M114.35 75.67c5.74,0 10.39,-4.65 10.39,-10.39l0 -4.4c0,-5.74 -4.65,-10.39 -10.39,-10.39 -5.74,0 -10.39,4.65 -10.39,10.39l0 4.4c0,5.74 4.65,10.39 10.39,10.39z"/>
    <path class="fil0" d="M22.35 83.77l-9.38 0c-7.16,0 -12.97,5.81 -12.97,12.97l0 15.75 35.32 0 0 -15.75c0,-7.16 -5.81,-12.97 -12.97,-12.97z"/>
    <path class="fil0" d="M17.66 75.67c5.74,0 10.39,-4.65 10.39,-10.39l0 -4.4c0,-5.74 -4.65,-10.39 -10.39,-10.39 -5.74,0 -10.39,4.65 -10.39,10.39l0 4.4c0,5.74 4.65,10.39 10.39,10.39z"/>
    <path class="fil0" d="M66 13.06c0.87,0 1.58,-0.71 1.58,-1.58l-0 -9.91c0,-0.87 -0.71,-1.58 -1.58,-1.58 -0.87,0 -1.58,0.71 -1.58,1.58l0 9.91c0,0.87 0.71,1.58 1.58,1.58z"/>
    <path class="fil0" d="M81.87 17.6c0.44,0 0.87,-0.18 1.19,-0.54l6.04 -6.89c0.57,-0.66 0.51,-1.65 -0.15,-2.23 -0.65,-0.57 -1.65,-0.51 -2.23,0.15l-6.04 6.88c-0.57,0.66 -0.51,1.65 0.15,2.23 0.3,0.26 0.67,0.39 1.04,0.39z"/>
    <path class="fil0" d="M48.96 17.06c0.31,0.36 0.75,0.54 1.19,0.54 0.37,0 0.74,-0.13 1.04,-0.39 0.66,-0.57 0.72,-1.57 0.15,-2.23l-6.04 -6.89c-0.57,-0.66 -1.57,-0.72 -2.23,-0.15 -0.66,0.57 -0.72,1.57 -0.15,2.23l6.04 6.89z"/>
    <path class="fil0" d="M99.38 30.68c0,-0.87 -0.71,-1.58 -1.58,-1.58l-9.21 0c-0.87,0 -1.58,0.71 -1.58,1.58 0,0.87 0.71,1.58 1.58,1.58l9.21 -0c0.87,0 1.58,-0.71 1.58,-1.58z"/>
    <path class="fil0" d="M43.41 29.1l-9.2 0c-0.87,0 -1.58,0.71 -1.58,1.58 0,0.87 0.71,1.58 1.58,1.58l9.21 -0c0.87,0 1.58,-0.71 1.58,-1.58 0,-0.87 -0.71,-1.58 -1.58,-1.58z"/>
   </g>
  </g>
 </g>
</svg>
