<?xml version="1.0" encoding="UTF-8"?>
<!DOCTYPE svg PUBLIC "-//W3C//DTD SVG 1.1//EN" "http://www.w3.org/Graphics/SVG/1.1/DTD/svg11.dtd">
<!-- Creator: CorelDRAW 2021 (64-Bit) -->
<svg xmlns="http://www.w3.org/2000/svg" xml:space="preserve" width="0.167681in" height="0.166669in" version="1.1" style="shape-rendering:geometricPrecision; text-rendering:geometricPrecision; image-rendering:optimizeQuality; fill-rule:evenodd; clip-rule:evenodd"
viewBox="0 0 0.65 0.64"
 xmlns:xlink="http://www.w3.org/1999/xlink"
 xmlns:xodm="http://www.corel.com/coreldraw/odm/2003">
 <defs>
  <style type="text/css">
   <![CDATA[
    .fil0 {fill:#6E44FF;fill-rule:nonzero}
   ]]>
  </style>
 </defs>
 <g id="Layer_x0020_1">
  <metadata id="CorelCorpID_0Corel-Layer"/>
  <path class="fil0" d="M0.65 0.32c0,-0.18 -0.15,-0.32 -0.32,-0.32 -0.18,0 -0.32,0.15 -0.32,0.32 0,0.16 0.12,0.3 0.27,0.32l0 -0.23 -0.08 0 0 -0.09 0.08 0 0 -0.07c0,-0.08 0.05,-0.13 0.12,-0.13 0.04,0 0.07,0.01 0.07,0.01l0 0.08 -0.04 0c-0.04,0 -0.05,0.03 -0.05,0.05l0 0.06 0.09 0 -0.01 0.09 -0.08 0 0 0.23c0.16,-0.02 0.27,-0.16 0.27,-0.32z"/>
 </g>
</svg>
