<?xml version="1.0" encoding="UTF-8"?>
<!DOCTYPE svg PUBLIC "-//W3C//DTD SVG 1.1//EN" "http://www.w3.org/Graphics/SVG/1.1/DTD/svg11.dtd">
<!-- Creator: CorelDRAW 2021 (64-Bit) -->
<svg xmlns="http://www.w3.org/2000/svg" xml:space="preserve" width="0.170937in" height="0.166669in" version="1.1" style="shape-rendering:geometricPrecision; text-rendering:geometricPrecision; image-rendering:optimizeQuality; fill-rule:evenodd; clip-rule:evenodd"
viewBox="0 0 0.7 0.69"
 xmlns:xlink="http://www.w3.org/1999/xlink"
 xmlns:xodm="http://www.corel.com/coreldraw/odm/2003">
 <defs>
  <style type="text/css">
   <![CDATA[
    .fil0 {fill:#6E44FF;fill-rule:nonzero}
   ]]>
  </style>
 </defs>
 <g id="Layer_x0020_1">
  <metadata id="CorelCorpID_0Corel-Layer"/>
  <path class="fil0" d="M0.24 0.55c0,0 -0,0.01 -0.01,0.01 -0,0 -0.01,-0 -0.01,-0.01 0,-0 0,-0.01 0.01,-0.01 0,-0 0.01,0 0.01,0.01zm-0.04 -0.01c-0,0 0,0.01 0.01,0.01 0,0 0.01,0 0.01,-0 0,-0 -0,-0.01 -0.01,-0.01 -0,-0 -0.01,0 -0.01,0zm0.06 -0c-0,0 -0.01,0 -0.01,0.01 0,0 0,0 0.01,0 0,-0 0.01,-0 0.01,-0.01 -0,-0 -0,-0 -0.01,-0zm0.09 -0.54c-0.2,0 -0.35,0.15 -0.35,0.35 0,0.16 0.1,0.29 0.24,0.34 0.02,0 0.02,-0.01 0.02,-0.02 0,-0.01 -0,-0.06 -0,-0.09 0,0 -0.1,0.02 -0.12,-0.04 0,0 -0.02,-0.04 -0.04,-0.05 0,0 -0.03,-0.02 0,-0.02 0,0 0.04,0 0.05,0.04 0.03,0.05 0.08,0.04 0.1,0.03 0,-0.02 0.01,-0.04 0.02,-0.05 -0.08,-0.01 -0.16,-0.02 -0.16,-0.16 0,-0.04 0.01,-0.06 0.03,-0.08 -0,-0.01 -0.02,-0.05 0,-0.1 0.03,-0.01 0.1,0.04 0.1,0.04 0.03,-0.01 0.06,-0.01 0.09,-0.01 0.03,0 0.06,0 0.09,0.01 0,0 0.07,-0.05 0.1,-0.04 0.02,0.05 0.01,0.09 0,0.1 0.02,0.03 0.04,0.04 0.04,0.08 0,0.14 -0.08,0.15 -0.16,0.16 0.01,0.01 0.02,0.03 0.02,0.07 0,0.05 -0,0.11 -0,0.12 0,0.01 0.01,0.02 0.02,0.02 0.14,-0.05 0.24,-0.18 0.24,-0.34 0,-0.2 -0.16,-0.35 -0.36,-0.35zm-0.21 0.49c-0,0 -0,0 0,0.01 0,0 0.01,0 0.01,0 0,-0 0,-0 -0,-0.01 -0,-0 -0.01,-0 -0.01,-0zm-0.02 -0.01c-0,0 0,0 0,0.01 0,0 0.01,0 0.01,-0 0,-0 -0,-0 -0,-0.01 -0,-0 -0.01,-0 -0.01,0zm0.05 0.05c-0,0 -0,0.01 0,0.01 0,0 0.01,0 0.01,0 0,-0 0,-0.01 -0,-0.01 -0,-0 -0.01,-0 -0.01,-0zm-0.02 -0.02c-0,0 -0,0.01 0,0.01 0,0 0.01,0 0.01,0 0,-0 0,-0.01 0,-0.01 -0,-0 -0.01,-0 -0.01,-0z"/>
 </g>
</svg>
