<?xml version="1.0" encoding="UTF-8"?>
<!DOCTYPE svg PUBLIC "-//W3C//DTD SVG 1.1//EN" "http://www.w3.org/Graphics/SVG/1.1/DTD/svg11.dtd">
<!-- Creator: CorelDRAW 2021 (64-Bit) -->
<svg xmlns="http://www.w3.org/2000/svg" xml:space="preserve" width="1.61197in" height="1.33334in" version="1.1" style="shape-rendering:geometricPrecision; text-rendering:geometricPrecision; image-rendering:optimizeQuality; fill-rule:evenodd; clip-rule:evenodd"
viewBox="0 0 116.03 95.97"
 xmlns:xlink="http://www.w3.org/1999/xlink"
 xmlns:xodm="http://www.corel.com/coreldraw/odm/2003">
 <defs>
  <style type="text/css">
   <![CDATA[
    .fil0 {fill:#6E44FF;fill-rule:nonzero}
   ]]>
  </style>
 </defs>
 <g id="Layer_x0020_1">
  <metadata id="CorelCorpID_0Corel-Layer"/>
  <g id="_2262666642640">
   <path class="fil0" d="M90.97 52.05l-12.35 0c-7.88,0 -14.28,-6.41 -14.28,-14.28l0 -11.93c0,-3.48 -2.83,-6.32 -6.32,-6.32 -3.48,0 -6.32,2.83 -6.32,6.32l0 11.93c0,7.88 -6.41,14.28 -14.28,14.28l-12.35 0c-13.82,0 -25.06,11.24 -25.06,25.06l0 11.18c0,3.48 2.83,6.32 6.32,6.32 3.48,0 6.32,-2.83 6.32,-6.32l0 -9.35c0,-2.58 0.68,-5.06 1.96,-7.22l0 20.66c0,1.98 1.61,3.6 3.6,3.6l27.94 0c1.98,0 3.6,-1.61 3.6,-3.6l-0 -30c3.22,-1.48 6.02,-3.59 8.28,-6.14 2.31,2.59 5.13,4.69 8.27,6.14l0 30c0,1.98 1.61,3.6 3.6,3.6l27.94 -0c1.98,0 3.6,-1.61 3.6,-3.6l-0 -20.66c1.28,2.17 1.96,4.64 1.96,7.22l0 10.64c0,3.48 2.83,6.32 6.32,6.32 3.48,0 6.32,-2.83 6.32,-6.32l0 -12.47c0,-13.82 -11.24,-25.06 -25.06,-25.06z"/>
   <path class="fil0" d="M72.57 36.33c0,6.05 4.92,10.98 10.98,10.98 6.05,0 10.98,-4.92 10.98,-10.98l0 -7.37c0,-6.05 -4.92,-10.98 -10.98,-10.98 -6.05,0 -10.98,4.92 -10.98,10.98l0 7.37z"/>
   <path class="fil0" d="M32.48 47.31c6.05,0 10.98,-4.92 10.98,-10.98l0 -7.37c0,-6.05 -4.92,-10.98 -10.98,-10.98 -6.05,0 -10.98,4.92 -10.98,10.98l0 7.37c0,6.06 4.93,10.98 10.98,10.98z"/>
   <path class="fil0" d="M58.01 13.49c0.71,0 1.29,-0.58 1.29,-1.29l-0 -10.91c0,-0.71 -0.58,-1.29 -1.29,-1.29 -0.71,0 -1.29,0.58 -1.29,1.29l0 10.91c0,0.71 0.58,1.29 1.29,1.29z"/>
   <path class="fil0" d="M65.11 17.36c0.28,0 0.56,-0.09 0.79,-0.27l9.02 -7.04c0.56,-0.44 0.66,-1.25 0.22,-1.81 -0.44,-0.56 -1.25,-0.66 -1.81,-0.22l-9.02 7.04c-0.56,0.44 -0.66,1.25 -0.22,1.81 0.25,0.33 0.63,0.5 1.02,0.5z"/>
   <path class="fil0" d="M50.13 17.09c0.24,0.18 0.51,0.27 0.79,0.27 0.38,0 0.76,-0.17 1.02,-0.5 0.44,-0.56 0.34,-1.37 -0.22,-1.81l-9.02 -7.04c-0.56,-0.44 -1.37,-0.34 -1.81,0.22 -0.44,0.56 -0.34,1.37 0.22,1.81l9.02 7.04z"/>
  </g>
 </g>
</svg>
