<?xml version="1.0" encoding="UTF-8"?>
<!DOCTYPE svg PUBLIC "-//W3C//DTD SVG 1.1//EN" "http://www.w3.org/Graphics/SVG/1.1/DTD/svg11.dtd">
<!-- Creator: CorelDRAW 2021 (64-Bit) -->
<svg xmlns="http://www.w3.org/2000/svg" xml:space="preserve" width="0.114583in" height="0.166669in" version="1.1" style="shape-rendering:geometricPrecision; text-rendering:geometricPrecision; image-rendering:optimizeQuality; fill-rule:evenodd; clip-rule:evenodd"
viewBox="0 0 0.39 0.57"
 xmlns:xlink="http://www.w3.org/1999/xlink"
 xmlns:xodm="http://www.corel.com/coreldraw/odm/2003">
 <defs>
  <style type="text/css">
   <![CDATA[
    .fil0 {fill:#6E44FF;fill-rule:nonzero}
   ]]>
  </style>
 </defs>
 <g id="Layer_x0020_1">
  <metadata id="CorelCorpID_0Corel-Layer"/>
  <path class="fil0" d="M0.29 0.43c0.01,-0.04 0.03,-0.07 0.05,-0.1l0 0c0.01,-0.01 0.01,-0.02 0.02,-0.02 0.02,-0.03 0.04,-0.07 0.04,-0.11 0,-0.11 -0.09,-0.2 -0.2,-0.2 -0.11,0 -0.2,0.09 -0.2,0.2 0,0.04 0.01,0.08 0.04,0.11 0.01,0.01 0.01,0.02 0.02,0.02l0 0c0.02,0.03 0.04,0.06 0.05,0.1l0.18 0 0 0zm-0.09 0.14c0.05,0 0.09,-0.04 0.09,-0.09l0 -0.02 -0.18 0 0 0.02c0,0.05 0.04,0.09 0.09,0.09zm-0.09 -0.38c0,0.01 -0.01,0.02 -0.02,0.02 -0.01,0 -0.02,-0.01 -0.02,-0.02 0,-0.07 0.06,-0.13 0.13,-0.13 0.01,0 0.02,0.01 0.02,0.02 0,0.01 -0.01,0.02 -0.02,0.02 -0.05,0 -0.09,0.04 -0.09,0.09z"/>
 </g>
</svg>
