<?xml version="1.0" encoding="UTF-8"?>
<!DOCTYPE svg PUBLIC "-//W3C//DTD SVG 1.1//EN" "http://www.w3.org/Graphics/SVG/1.1/DTD/svg11.dtd">
<!-- Creator: CorelDRAW 2021 (64-Bit) -->
<svg xmlns="http://www.w3.org/2000/svg" xml:space="preserve" width="0.166709in" height="0.166669in" version="1.1" style="shape-rendering:geometricPrecision; text-rendering:geometricPrecision; image-rendering:optimizeQuality; fill-rule:evenodd; clip-rule:evenodd"
viewBox="0 0 0.63 0.63"
 xmlns:xlink="http://www.w3.org/1999/xlink"
 xmlns:xodm="http://www.corel.com/coreldraw/odm/2003">
 <defs>
  <style type="text/css">
   <![CDATA[
    .fil0 {fill:#6E44FF;fill-rule:nonzero}
   ]]>
  </style>
 </defs>
 <g id="Layer_x0020_1">
  <metadata id="CorelCorpID_0Corel-Layer"/>
  <path class="fil0" d="M0.32 0.15c-0.09,0 -0.16,0.07 -0.16,0.16 0,0.09 0.07,0.16 0.16,0.16 0.09,0 0.16,-0.07 0.16,-0.16 0,-0.09 -0.07,-0.16 -0.16,-0.16zm0 0.27c-0.06,0 -0.11,-0.05 -0.11,-0.11 0,-0.06 0.05,-0.11 0.11,-0.11 0.06,0 0.11,0.05 0.11,0.11 0,0.06 -0.05,0.11 -0.11,0.11zm0.21 -0.27c0,0.02 -0.02,0.04 -0.04,0.04 -0.02,0 -0.04,-0.02 -0.04,-0.04 0,-0.02 0.02,-0.04 0.04,-0.04 0.02,0 0.04,0.02 0.04,0.04zm0.11 0.04c-0,-0.05 -0.01,-0.1 -0.05,-0.13 -0.04,-0.04 -0.08,-0.05 -0.13,-0.05 -0.05,-0 -0.21,-0 -0.26,0 -0.05,0 -0.1,0.01 -0.13,0.05 -0.04,0.04 -0.05,0.08 -0.05,0.13 -0,0.05 -0,0.21 0,0.26 0,0.05 0.01,0.1 0.05,0.13 0.04,0.04 0.08,0.05 0.13,0.05 0.05,0 0.21,0 0.26,0 0.05,-0 0.1,-0.01 0.13,-0.05 0.04,-0.04 0.05,-0.08 0.05,-0.13 0,-0.05 0,-0.21 0,-0.26zm-0.07 0.32c-0.01,0.03 -0.03,0.05 -0.06,0.06 -0.04,0.02 -0.14,0.01 -0.19,0.01 -0.05,0 -0.14,0 -0.19,-0.01 -0.03,-0.01 -0.05,-0.03 -0.06,-0.06 -0.02,-0.04 -0.01,-0.14 -0.01,-0.19 0,-0.05 -0,-0.14 0.01,-0.19 0.01,-0.03 0.03,-0.05 0.06,-0.06 0.04,-0.02 0.14,-0.01 0.19,-0.01 0.05,0 0.14,-0 0.19,0.01 0.03,0.01 0.05,0.03 0.06,0.06 0.02,0.04 0.01,0.14 0.01,0.19 0,0.05 0,0.14 -0.01,0.19z"/>
 </g>
</svg>
