<?xml version="1.0" encoding="UTF-8"?>
<!DOCTYPE svg PUBLIC "-//W3C//DTD SVG 1.1//EN" "http://www.w3.org/Graphics/SVG/1.1/DTD/svg11.dtd">
<!-- Creator: CorelDRAW 2021 (64-Bit) -->
<svg xmlns="http://www.w3.org/2000/svg" xml:space="preserve" width="0.166665in" height="0.166665in" version="1.1" style="shape-rendering:geometricPrecision; text-rendering:geometricPrecision; image-rendering:optimizeQuality; fill-rule:evenodd; clip-rule:evenodd"
viewBox="0 0 0.66 0.66"
 xmlns:xlink="http://www.w3.org/1999/xlink"
 xmlns:xodm="http://www.corel.com/coreldraw/odm/2003">
 <defs>
  <style type="text/css">
   <![CDATA[
    .fil0 {fill:#6E44FF;fill-rule:nonzero}
   ]]>
  </style>
 </defs>
 <g id="Layer_x0020_1">
  <metadata id="CorelCorpID_0Corel-Layer"/>
  <path class="fil0" d="M0.61 0l-0.57 0c-0.03,0 -0.05,0.02 -0.05,0.05l0 0.57c0,0.03 0.02,0.05 0.05,0.05l0.57 0c0.03,0 0.05,-0.02 0.05,-0.05l0 -0.57c0,-0.03 -0.02,-0.05 -0.05,-0.05zm-0.41 0.57l-0.1 0 0 -0.32 0.1 0 0 0.32 -0 0zm-0.05 -0.36c-0.03,0 -0.06,-0.03 -0.06,-0.06 0,-0.03 0.03,-0.06 0.06,-0.06 0.03,0 0.06,0.03 0.06,0.06 0,0.03 -0.03,0.06 -0.06,0.06l0 0zm0.42 0.36l-0.1 0 0 -0.15c0,-0.04 -0,-0.08 -0.05,-0.08 -0.05,0 -0.06,0.04 -0.06,0.08l0 0.16 -0.1 0 0 -0.32 0.09 0 0 0.04 0 0c0.01,-0.02 0.05,-0.05 0.09,-0.05 0.1,0 0.12,0.07 0.12,0.15l0 0.17z"/>
 </g>
</svg>
