<?xml version="1.0" encoding="UTF-8"?>
<!DOCTYPE svg PUBLIC "-//W3C//DTD SVG 1.1//EN" "http://www.w3.org/Graphics/SVG/1.1/DTD/svg11.dtd">
<!-- Creator: CorelDRAW 2021 (64-Bit) -->
<svg xmlns="http://www.w3.org/2000/svg" xml:space="preserve" width="0.654531in" height="0.4in" version="1.1" style="shape-rendering:geometricPrecision; text-rendering:geometricPrecision; image-rendering:optimizeQuality; fill-rule:evenodd; clip-rule:evenodd"
viewBox="0 0 24.35 14.88"
 xmlns:xlink="http://www.w3.org/1999/xlink"
 xmlns:xodm="http://www.corel.com/coreldraw/odm/2003">
 <defs>
  <style type="text/css">
   <![CDATA[
    .fil0 {fill:white;fill-rule:nonzero}
   ]]>
  </style>
 </defs>
 <g id="Layer_x0020_1">
  <metadata id="CorelCorpID_0Corel-Layer"/>
  <g id="_2261800785296">
   <g>
    <path class="fil0" d="M5.39 6.68l0 0c-1.56,0 -2.83,-1.27 -2.83,-2.83l0 -1.02c0,-1.56 1.27,-2.83 2.83,-2.83l0 0c1.56,0 2.83,1.27 2.83,2.83l0 1.02c0,1.56 -1.27,2.83 -2.83,2.83z"/>
    <path class="fil0" d="M18.96 6.68l0 0c-1.56,0 -2.83,-1.27 -2.83,-2.83l0 -1.02c0,-1.56 1.27,-2.83 2.83,-2.83l0 0c1.56,0 2.83,1.27 2.83,2.83l0 1.02c0,1.56 -1.27,2.83 -2.83,2.83z"/>
    <path class="fil0" d="M16.94 12.6l-0.71 -0.71c-0.01,-0.01 -0.02,-0.01 -0.02,-0.02l-1.27 -1.27c-0.06,-0.06 -0.17,-0.06 -0.23,0l-0.71 0.71c-0.06,0.06 -0.06,0.17 0,0.23l0.51 0.51 -4.07 0c-0.12,0 -0.21,0.1 -0.21,0.21l0 0.9c0,0.12 0.1,0.21 0.21,0.21l4.07 0 -0.51 0.51c-0.06,0.06 -0.06,0.17 0,0.23l0.71 0.71c0.06,0.06 0.17,0.06 0.23,0l1.27 -1.27c0.01,-0.01 0.02,-0.01 0.02,-0.02l0.71 -0.71c0.03,-0.03 0.05,-0.08 0.05,-0.12 0,-0.04 -0.01,-0.09 -0.05,-0.12z"/>
    <path class="fil0" d="M8.1 9.08l0.71 -0.71c0.01,-0.01 0.02,-0.01 0.02,-0.02l1.27 -1.27c0.06,-0.06 0.17,-0.06 0.23,0l0.71 0.71c0.06,0.06 0.06,0.17 0,0.23l-0.51 0.51 4.07 0c0.12,0 0.21,0.1 0.21,0.21l0 0.9c0,0.12 -0.1,0.21 -0.21,0.21l-4.07 0 0.51 0.51c0.06,0.06 0.06,0.17 0,0.23l-0.71 0.71c-0.06,0.06 -0.17,0.06 -0.23,0l-1.27 -1.27c-0.01,-0.01 -0.02,-0.01 -0.02,-0.02l-0.71 -0.71c-0.03,-0.03 -0.05,-0.08 -0.05,-0.12 -0,-0.04 0.01,-0.09 0.05,-0.12z"/>
    <path class="fil0" d="M9 13.17l0 -0.9c0,-0.1 0.01,-0.2 0.03,-0.3l-1 -1c-0.03,-0.03 -0.07,-0.06 -0.1,-0.09l-0.7 -0.7c-0.26,-0.26 -0.4,-0.61 -0.4,-0.98 -0,-0.37 0.15,-0.72 0.4,-0.98l0 -0 0.84 -0.84c-0.35,-0.15 -0.71,-0.26 -1.1,-0.32 -0.48,0.25 -1.02,0.39 -1.59,0.39 -0.57,0 -1.12,-0.14 -1.59,-0.39 -2.14,0.32 -3.8,2.18 -3.8,4.4l0 2.93c0,0.27 0.22,0.49 0.49,0.49l9.8 0c0.19,0 0.36,-0.12 0.44,-0.28l-0.3 0c-0.79,0 -1.43,-0.64 -1.43,-1.43z"/>
    <path class="fil0" d="M20.56 7.07c-0.48,0.25 -1.02,0.39 -1.59,0.39 -0.57,0 -1.12,-0.14 -1.59,-0.39 -0.64,0.1 -1.23,0.33 -1.75,0.67 0.26,0.26 0.42,0.62 0.42,1.01l0 0.9c0,0.1 -0.01,0.2 -0.03,0.3l1 1c0.03,0.03 0.06,0.05 0.09,0.08l0.71 0.71c0.26,0.26 0.41,0.61 0.4,0.98 0,0.37 -0.15,0.72 -0.4,0.98l-1.19 1.18 7.25 0c0.27,0 0.49,-0.22 0.49,-0.49l0 -2.93c-0,-2.23 -1.66,-4.08 -3.8,-4.4z"/>
   </g>
  </g>
 </g>
</svg>
