<?xml version="1.0" encoding="UTF-8"?>
<!DOCTYPE svg PUBLIC "-//W3C//DTD SVG 1.1//EN" "http://www.w3.org/Graphics/SVG/1.1/DTD/svg11.dtd">
<!-- Creator: CorelDRAW 2021 (64-Bit) -->
<svg xmlns="http://www.w3.org/2000/svg" xml:space="preserve" width="0.351492in" height="0.400004in" version="1.1" style="shape-rendering:geometricPrecision; text-rendering:geometricPrecision; image-rendering:optimizeQuality; fill-rule:evenodd; clip-rule:evenodd"
viewBox="0 0 7.22 8.21"
 xmlns:xlink="http://www.w3.org/1999/xlink"
 xmlns:xodm="http://www.corel.com/coreldraw/odm/2003">
 <defs>
  <style type="text/css">
   <![CDATA[
    .fil0 {fill:#EF7A85;fill-rule:nonzero}
   ]]>
  </style>
 </defs>
 <g id="Layer_x0020_1">
  <metadata id="CorelCorpID_0Corel-Layer"/>
  <path class="fil0" d="M1.55 2.03l0 -0.93c0,-0.21 0.13,-0.41 0.34,-0.48l1.55 -0.58c0.12,-0.04 0.24,-0.04 0.36,0l1.55 0.58c0.2,0.08 0.34,0.27 0.34,0.48l0 0.93 -0 0c0,0.04 0,0.09 0,0.13l0 0.64c0,1.14 -0.92,2.06 -2.06,2.06 -1.14,0 -2.06,-0.92 -2.06,-2.06l0 -0.64c0,-0.04 0,-0.09 0,-0.13l-0.01 0zm0.77 0.77c0,0.71 0.58,1.29 1.29,1.29 0.71,0 1.29,-0.58 1.29,-1.29l0 -0.26 -2.58 0 0 0.26zm-0.52 2.44c0.17,-0.05 0.35,0.01 0.47,0.14l1.14 1.22c0.1,0.11 0.27,0.11 0.38,0l1.14 -1.22c0.12,-0.13 0.3,-0.19 0.47,-0.14 1.05,0.34 1.8,1.32 1.8,2.47 0,0.27 -0.22,0.49 -0.49,0.49l-6.23 0c-0.27,0 -0.49,-0.22 -0.49,-0.49 0,-1.16 0.76,-2.14 1.8,-2.47zm1.55 -4.51l0 0.26 -0.26 0c-0.07,0 -0.13,0.06 -0.13,0.13l0 0.26c0,0.07 0.06,0.13 0.13,0.13l0.26 0 0 0.26c0,0.07 0.06,0.13 0.13,0.13l0.26 0c0.07,0 0.13,-0.06 0.13,-0.13l0 -0.26 0.26 0c0.07,0 0.13,-0.06 0.13,-0.13l0 -0.26c0,-0.07 -0.06,-0.13 -0.13,-0.13l-0.26 0 0 -0.26c0,-0.07 -0.06,-0.13 -0.13,-0.13l-0.26 0c-0.07,0 -0.13,0.06 -0.13,0.13z"/>
 </g>
</svg>
