<?xml version="1.0" encoding="UTF-8"?>
<!DOCTYPE svg PUBLIC "-//W3C//DTD SVG 1.1//EN" "http://www.w3.org/Graphics/SVG/1.1/DTD/svg11.dtd">
<!-- Creator: CorelDRAW 2021 (64-Bit) -->
<svg xmlns="http://www.w3.org/2000/svg" xml:space="preserve" width="0.166677in" height="0.166669in" version="1.1" style="shape-rendering:geometricPrecision; text-rendering:geometricPrecision; image-rendering:optimizeQuality; fill-rule:evenodd; clip-rule:evenodd"
viewBox="0 0 0.91 0.91"
 xmlns:xlink="http://www.w3.org/1999/xlink"
 xmlns:xodm="http://www.corel.com/coreldraw/odm/2003">
 <defs>
  <style type="text/css">
   <![CDATA[
    .fil0 {fill:#6E44FF;fill-rule:nonzero}
   ]]>
  </style>
 </defs>
 <g id="Layer_x0020_1">
  <metadata id="CorelCorpID_0Corel-Layer"/>
  <g id="_2048136815808">
   <g>
    <path class="fil0" d="M0.06 0.91c-0.02,0 -0.03,-0.01 -0.04,-0.02 -0.02,-0.02 -0.02,-0.06 0,-0.09l0.79 -0.79c0.02,-0.02 0.06,-0.02 0.09,0 0.02,0.02 0.02,0.06 0,0.09l-0.79 0.79c-0.01,0.01 -0.03,0.02 -0.04,0.02z"/>
    <path class="fil0" d="M0.85 0.91c-0.02,0 -0.03,-0.01 -0.04,-0.02l-0.79 -0.79c-0.02,-0.02 -0.02,-0.06 0,-0.09 0.02,-0.02 0.06,-0.02 0.09,0l0.79 0.79c0.02,0.02 0.02,0.06 0,0.09 -0.01,0.01 -0.03,0.02 -0.04,0.02z"/>
   </g>
  </g>
 </g>
</svg>
