<?xml version="1.0" encoding="UTF-8"?>
<!DOCTYPE svg PUBLIC "-//W3C//DTD SVG 1.1//EN" "http://www.w3.org/Graphics/SVG/1.1/DTD/svg11.dtd">
<!-- Creator: CorelDRAW 2021 (64-Bit) -->
<svg xmlns="http://www.w3.org/2000/svg" xml:space="preserve" width="0.166681in" height="0.166669in" version="1.1" style="shape-rendering:geometricPrecision; text-rendering:geometricPrecision; image-rendering:optimizeQuality; fill-rule:evenodd; clip-rule:evenodd"
viewBox="0 0 0.85 0.85"
 xmlns:xlink="http://www.w3.org/1999/xlink"
 xmlns:xodm="http://www.corel.com/coreldraw/odm/2003">
 <defs>
  <style type="text/css">
   <![CDATA[
    .fil0 {fill:#6E44FF;fill-rule:nonzero}
   ]]>
  </style>
 </defs>
 <g id="Layer_x0020_1">
  <metadata id="CorelCorpID_0Corel-Layer"/>
  <path class="fil0" d="M-0 0.37c0,0.03 0.02,0.05 0.05,0.05 0.03,0 0.05,-0.02 0.05,-0.05 0,-0.09 0.07,-0.16 0.16,-0.16l0.27 0 0 0.05c0,0.02 0.01,0.04 0.03,0.05 0.02,0.01 0.04,0 0.06,-0.01l0.11 -0.11c0.02,-0.02 0.02,-0.05 0,-0.08l-0.11 -0.11c-0.02,-0.02 -0.04,-0.02 -0.06,-0.01 -0.02,0.01 -0.03,0.03 -0.03,0.05l0 0.05 -0.27 0c-0.15,0 -0.27,0.12 -0.27,0.27zm0.85 0.11c0,-0.03 -0.02,-0.05 -0.05,-0.05 -0.03,0 -0.05,0.02 -0.05,0.05 0,0.09 -0.07,0.16 -0.16,0.16l-0.27 0 0 -0.05c0,-0.02 -0.01,-0.04 -0.03,-0.05 -0.02,-0.01 -0.04,-0 -0.06,0.01l-0.11 0.11c-0.02,0.02 -0.02,0.05 0,0.08l0.11 0.11c0.02,0.02 0.04,0.02 0.06,0.01 0.02,-0.01 0.03,-0.03 0.03,-0.05l0 -0.05 0.27 0c0.15,0 0.27,-0.12 0.27,-0.27z"/>
 </g>
</svg>
