<?xml version="1.0" encoding="UTF-8"?>
<!DOCTYPE svg PUBLIC "-//W3C//DTD SVG 1.1//EN" "http://www.w3.org/Graphics/SVG/1.1/DTD/svg11.dtd">
<!-- Creator: CorelDRAW 2021 (64-Bit) -->
<svg xmlns="http://www.w3.org/2000/svg" xml:space="preserve" width="0.32in" height="0.320008in" version="1.1" style="shape-rendering:geometricPrecision; text-rendering:geometricPrecision; image-rendering:optimizeQuality; fill-rule:evenodd; clip-rule:evenodd"
viewBox="0 0 5.95 5.95"
 xmlns:xlink="http://www.w3.org/1999/xlink"
 xmlns:xodm="http://www.corel.com/coreldraw/odm/2003">
 <defs>
  <style type="text/css">
   <![CDATA[
    .fil0 {fill:#6E44FF;fill-rule:nonzero}
   ]]>
  </style>
 </defs>
 <g id="Layer_x0020_1">
  <metadata id="CorelCorpID_0Corel-Layer"/>
  <path class="fil0" d="M1.82 4.47l-0.36 -0.36c-0.1,-0.1 -0.13,-0.24 -0.09,-0.37 0.03,-0.1 0.08,-0.24 0.14,-0.39l-1.23 0c-0.1,0 -0.19,-0.05 -0.24,-0.14 -0.05,-0.09 -0.05,-0.19 0,-0.28l0.61 -1.03c0.15,-0.25 0.42,-0.41 0.72,-0.41l0.96 0c0.03,-0.05 0.06,-0.09 0.08,-0.13 0.95,-1.4 2.37,-1.45 3.21,-1.29 0.13,0.02 0.24,0.13 0.26,0.26 0.16,0.85 0.11,2.26 -1.29,3.21 -0.04,0.03 -0.08,0.06 -0.13,0.08l0 0.96c0,0.29 -0.16,0.57 -0.41,0.72l-1.03 0.61c-0.09,0.05 -0.19,0.05 -0.28,0 -0.09,-0.05 -0.14,-0.14 -0.14,-0.24l0 -1.24c-0.16,0.06 -0.31,0.1 -0.41,0.14 -0.13,0.04 -0.27,0.01 -0.37,-0.09l0 0zm2.64 -2.52c0.26,0 0.46,-0.21 0.46,-0.46 0,-0.26 -0.21,-0.46 -0.46,-0.46 -0.26,0 -0.46,0.21 -0.46,0.46 0,0.26 0.21,0.46 0.46,0.46l0 0z"/>
 </g>
</svg>
