<?xml version="1.0" encoding="UTF-8"?>
<!DOCTYPE svg PUBLIC "-//W3C//DTD SVG 1.1//EN" "http://www.w3.org/Graphics/SVG/1.1/DTD/svg11.dtd">
<!-- Creator: CorelDRAW 2021 (64-Bit) -->
<svg xmlns="http://www.w3.org/2000/svg" xml:space="preserve" width="0.166657in" height="0.166669in" version="1.1" style="shape-rendering:geometricPrecision; text-rendering:geometricPrecision; image-rendering:optimizeQuality; fill-rule:evenodd; clip-rule:evenodd"
viewBox="0 0 0.8 0.8"
 xmlns:xlink="http://www.w3.org/1999/xlink"
 xmlns:xodm="http://www.corel.com/coreldraw/odm/2003">
 <defs>
  <style type="text/css">
   <![CDATA[
    .fil0 {fill:#6E44FF;fill-rule:nonzero}
   ]]>
  </style>
 </defs>
 <g id="Layer_x0020_1">
  <metadata id="CorelCorpID_0Corel-Layer"/>
  <path class="fil0" d="M0.57 0.03l-0.08 0.08 0.2 0.2 0.08 -0.08c0.04,-0.04 0.04,-0.1 0,-0.14l-0.06 -0.06c-0.04,-0.04 -0.1,-0.04 -0.14,0l-0 0zm-0.11 0.11l-0.36 0.36c-0.02,0.02 -0.03,0.04 -0.03,0.06l-0.06 0.19c-0,0.01 -0,0.03 0.01,0.04 0.01,0.01 0.02,0.01 0.04,0.01l0.19 -0.06c0.02,-0.01 0.04,-0.02 0.06,-0.03l0.36 -0.36 -0.2 -0.2z"/>
 </g>
</svg>
