<?xml version="1.0" standalone="no"?>
<!DOCTYPE svg PUBLIC "-//W3C//DTD SVG 20010904//EN"
 "http://www.w3.org/TR/2001/REC-SVG-20010904/DTD/svg10.dtd">
<svg version="1.0" xmlns="http://www.w3.org/2000/svg"
 width="1000.000000pt" height="1000.000000pt" viewBox="0 0 1000.000000 1000.000000"
 preserveAspectRatio="xMidYMid meet">
<metadata>
Created by potrace 1.16, written by Peter Selinger 2001-2019
</metadata>
<g transform="translate(0.000000,1000.000000) scale(0.100000,-0.100000)"
fill="#000000" stroke="none">
<path d="M4376 8215 c-16 -16 -711 -1211 -1543 -2655 -833 -1444 -1526 -2642
-1540 -2663 -54 -78 -58 -68 256 -612 155 -269 296 -502 312 -517 l29 -28
3098 0 c3009 0 3098 1 3127 19 22 14 93 128 279 452 138 239 269 466 293 506
52 86 57 138 19 188 -13 17 -410 699 -881 1515 -1237 2141 -1406 2433 -1818
3147 -307 533 -375 644 -401 657 -27 14 -107 16 -616 18 l-585 3 -29 -30z
m1576 -995 c253 -437 622 -1076 820 -1420 690 -1195 1073 -1858 1360 -2354
158 -275 287 -500 285 -502 -1 -2 -1046 -6 -2320 -10 l-2318 -7 106 184 c59
101 155 266 213 366 l106 183 1413 2 1413 3 25 26 c32 32 42 88 23 126 -9 15
-97 170 -198 343 -216 373 -416 719 -1430 2475 -419 726 -771 1335 -782 1353
l-20 32 423 -2 422 -3 459 -795z m-382 -1235 c1327 -2299 1210 -2096 1210
-2101 0 -2 -190 -3 -422 -2 l-422 3 -700 1213 c-493 854 -708 1218 -726 1228
-31 17 -71 18 -105 2 -32 -14 13 61 -797 -1343 -349 -605 -687 -1190 -750
-1300 -738 -1279 -919 -1590 -926 -1592 -10 -3 -417 708 -416 728 0 8 164 299
364 645 731 1266 2284 3954 2450 4242 103 180 125 211 133 195 6 -10 504 -873
1107 -1918z m-899 -350 c111 -192 202 -354 202 -360 0 -9 -309 -544 -1199
-2085 -213 -367 -216 -375 -165 -432 l29 -33 2445 -5 2444 -5 -216 -377 -216
-377 -2938 -1 -2938 0 12 23 c7 12 128 222 269 467 262 453 1203 2084 1680
2910 368 638 371 643 380 634 5 -5 99 -166 211 -359z m677 -1180 l329 -570
-333 -3 c-183 -1 -485 -1 -671 0 l-339 3 303 525 c167 289 317 549 334 579 17
30 34 50 39 45 5 -5 157 -265 338 -579z"/>
</g>
</svg>
