<?xml version="1.0" encoding="UTF-8"?>
<!DOCTYPE svg PUBLIC "-//W3C//DTD SVG 1.1//EN" "http://www.w3.org/Graphics/SVG/1.1/DTD/svg11.dtd">
<!-- Creator: CorelDRAW 2021 (64-Bit) -->
<svg xmlns="http://www.w3.org/2000/svg" xml:space="preserve" width="0.399996in" height="0.4in" version="1.1" style="shape-rendering:geometricPrecision; text-rendering:geometricPrecision; image-rendering:optimizeQuality; fill-rule:evenodd; clip-rule:evenodd"
viewBox="0 0 10.11 10.11"
 xmlns:xlink="http://www.w3.org/1999/xlink"
 xmlns:xodm="http://www.corel.com/coreldraw/odm/2003">
 <defs>
  <style type="text/css">
   <![CDATA[
    .fil0 {fill:white;fill-rule:nonzero}
   ]]>
  </style>
 </defs>
 <g id="Layer_x0020_1">
  <metadata id="CorelCorpID_0Corel-Layer"/>
  <g id="_2262669411520">
   <g>
    <path class="fil0" d="M1.6 7.68l0 0c-0.46,0 -0.84,-0.38 -0.84,-0.84l0 -0.3c0,-0.46 0.38,-0.84 0.84,-0.84l0 0c0.46,0 0.84,0.38 0.84,0.84l0 0.3c-0,0.46 -0.38,0.84 -0.84,0.84z"/>
    <path class="fil0" d="M2.07 7.79c-0.14,0.07 -0.3,0.12 -0.47,0.12 -0.17,0 -0.33,-0.04 -0.47,-0.12 -0.64,0.09 -1.13,0.65 -1.13,1.31l0 0.87c0,0.08 0.07,0.14 0.14,0.14l2.91 0c0.08,0 0.14,-0.07 0.14,-0.14l0 -0.87c0,-0.66 -0.49,-1.21 -1.13,-1.31z"/>
    <path class="fil0" d="M5.06 1.98l0 0c-0.46,0 -0.84,-0.38 -0.84,-0.84l0 -0.3c0,-0.46 0.38,-0.84 0.84,-0.84l0 0c0.46,0 0.84,0.38 0.84,0.84l0 0.3c0,0.46 -0.38,0.84 -0.84,0.84z"/>
    <path class="fil0" d="M5.53 2.1c-0.14,0.07 -0.3,0.12 -0.47,0.12 -0.17,0 -0.33,-0.04 -0.47,-0.12 -0.64,0.09 -1.13,0.65 -1.13,1.31l0 0.87c0,0.08 0.06,0.14 0.14,0.14l2.91 0c0.08,0 0.14,-0.07 0.14,-0.14l0 -0.87c0,-0.66 -0.49,-1.21 -1.13,-1.31z"/>
    <path class="fil0" d="M8.51 7.68l0 0c-0.46,0 -0.84,-0.38 -0.84,-0.84l0 -0.3c0,-0.46 0.38,-0.84 0.84,-0.84l0 0c0.46,0 0.84,0.38 0.84,0.84l0 0.3c0,0.46 -0.38,0.84 -0.84,0.84z"/>
    <path class="fil0" d="M8.99 7.79c-0.14,0.07 -0.3,0.12 -0.47,0.12 -0.17,0 -0.33,-0.04 -0.47,-0.12 -0.64,0.09 -1.13,0.65 -1.13,1.31l0 0.87c0,0.08 0.07,0.14 0.14,0.14l2.91 0c0.08,-0 0.14,-0.07 0.14,-0.14l0 -0.87c0,-0.66 -0.49,-1.21 -1.13,-1.31z"/>
    <path class="fil0" d="M8.68 3.5l-1.09 0c-0.03,0 -0.05,-0.02 -0.05,-0.05l0 -0.33c0,-0.03 0.02,-0.05 0.05,-0.05l1.09 0c0.03,0 0.05,0.02 0.05,0.05l0 0.33c0,0.03 -0.02,0.05 -0.05,0.05z"/>
    <path class="fil0" d="M8.73 3.12l0 1.86c0,0.04 -0.03,0.07 -0.07,0.07l-0.3 0c-0.04,0 -0.07,-0.03 -0.07,-0.07l0 -1.86c0,-0.04 0.03,-0.07 0.07,-0.07l0.3 0c0.04,0 0.07,0.03 0.07,0.07z"/>
    <path class="fil0" d="M7.11 3.31l0.65 0.65c0.02,0.02 0.05,0.02 0.07,0l0.24 -0.24c0.02,-0.02 0.02,-0.05 0,-0.07l-0.65 -0.65c-0.02,-0.02 -0.05,-0.02 -0.07,0l-0.24 0.24c-0.02,0.02 -0.02,0.05 -0,0.07z"/>
    <path class="fil0" d="M7.11 3.24l0.65 -0.65c0.02,-0.02 0.05,-0.02 0.07,0l0.24 0.24c0.02,0.02 0.02,0.05 0,0.07l-0.65 0.65c-0.02,0.02 -0.05,0.02 -0.07,0l-0.24 -0.24c-0.02,-0.02 -0.02,-0.05 -0,-0.07z"/>
    <path class="fil0" d="M1.82 3.12l0 1.84c0,0.04 -0.03,0.07 -0.07,0.07l-0.3 0c-0.04,0 -0.07,-0.03 -0.07,-0.07l0 -1.84c0,-0.04 0.03,-0.07 0.07,-0.07l0.3 0c0.04,0 0.07,0.03 0.07,0.07z"/>
    <path class="fil0" d="M2.53 3.5l-1.09 0c-0.03,0 -0.05,-0.02 -0.05,-0.05l0 -0.33c0,-0.03 0.02,-0.05 0.05,-0.05l1.09 0c0.03,0 0.05,0.02 0.05,0.05l0 0.33c0,0.03 -0.02,0.05 -0.05,0.05z"/>
    <path class="fil0" d="M1.64 5.22l0.65 -0.65c0.02,-0.02 0.02,-0.05 0,-0.07l-0.24 -0.24c-0.02,-0.02 -0.05,-0.02 -0.07,0l-0.65 0.65c-0.02,0.02 -0.02,0.05 0,0.07l0.24 0.24c0.02,0.02 0.05,0.02 0.07,0z"/>
    <path class="fil0" d="M1.57 5.22l-0.65 -0.65c-0.02,-0.02 -0.02,-0.05 0,-0.07l0.24 -0.24c0.02,-0.02 0.05,-0.02 0.07,0l0.65 0.65c0.02,0.02 0.02,0.05 0,0.07l-0.24 0.24c-0.02,0.02 -0.05,0.02 -0.07,0z"/>
    <path class="fil0" d="M3.87 9.17l1.91 0c0.04,0 0.07,-0.03 0.07,-0.07l0 -0.3c0,-0.04 -0.03,-0.07 -0.07,-0.07l-1.91 0c-0.04,0 -0.07,0.03 -0.07,0.07l0 0.3c0,0.04 0.03,0.07 0.07,0.07z"/>
    <path class="fil0" d="M6.33 8.99l-0.65 0.65c-0.02,0.02 -0.05,0.02 -0.07,0l-0.24 -0.24c-0.02,-0.02 -0.02,-0.05 0,-0.07l0.65 -0.65c0.02,-0.02 0.05,-0.02 0.07,0l0.24 0.24c0.02,0.02 0.02,0.05 0,0.07z"/>
    <path class="fil0" d="M6.33 8.92l-0.65 -0.65c-0.02,-0.02 -0.05,-0.02 -0.07,0l-0.24 0.24c-0.02,0.02 -0.02,0.05 0,0.07l0.65 0.65c0.02,0.02 0.05,0.02 0.07,0l0.24 -0.24c0.02,-0.02 0.02,-0.05 0,-0.07z"/>
   </g>
  </g>
 </g>
</svg>
