<?xml version="1.0" encoding="UTF-8"?>
<!DOCTYPE svg PUBLIC "-//W3C//DTD SVG 1.1//EN" "http://www.w3.org/Graphics/SVG/1.1/DTD/svg11.dtd">
<!-- Creator: CorelDRAW 2021 (64-Bit) -->
<svg xmlns="http://www.w3.org/2000/svg" xml:space="preserve" width="0.289697in" height="0.4in" version="1.1" style="shape-rendering:geometricPrecision; text-rendering:geometricPrecision; image-rendering:optimizeQuality; fill-rule:evenodd; clip-rule:evenodd"
viewBox="0 0 5.72 7.89"
 xmlns:xlink="http://www.w3.org/1999/xlink"
 xmlns:xodm="http://www.corel.com/coreldraw/odm/2003">
 <defs>
  <style type="text/css">
   <![CDATA[
    .fil0 {fill:white;fill-rule:nonzero}
   ]]>
  </style>
 </defs>
 <g id="Layer_x0020_1">
  <metadata id="CorelCorpID_0Corel-Layer"/>
  <g id="_2262657049712">
   <g>
    <path class="fil0" d="M2.86 3.54l0 0c-0.83,0 -1.5,-0.68 -1.5,-1.5l0 -0.54c0,-0.83 0.68,-1.5 1.5,-1.5l0 0c0.83,0 1.5,0.68 1.5,1.5l0 0.54c0,0.83 -0.68,1.5 -1.5,1.5z"/>
    <path class="fil0" d="M3.11 4.71l-0.06 -0.32 0.1 -0.17 0.18 -0.32c0.05,-0.09 -0.01,-0.19 -0.11,-0.19l-0.36 0 -0.36 0c-0.1,0 -0.16,0.11 -0.11,0.19l0.18 0.32 0.1 0.17 -0.06 0.32 -0.25 1.43 0.5 0.41 0.5 -0.41 -0.25 -1.43z"/>
    <path class="fil0" d="M3.78 3.76l-0.43 1.26 -0.49 1.43 -0.49 -1.43 -0.43 -1.26c-1.1,0.2 -1.94,1.17 -1.94,2.32l0 1.55c0,0.14 0.12,0.26 0.26,0.26l5.2 0c0.14,0 0.26,-0.12 0.26,-0.26l0 -1.55c0,-1.15 -0.84,-2.12 -1.94,-2.32z"/>
   </g>
  </g>
 </g>
</svg>
